<svg width="150" height="80" viewBox="0 0 550 250" xmlns="http://www.w3.org/2000/svg" xmlns:svg="http://www.w3.org/2000/svg">
 <g class="layer">
  <g id="layer1"><g id="svg_1" transform="matrix(4.25245, 0, 0, -4.25245, 426.906, 839.407)"><path d="m-87.73,162.73l5.93,0c1.12,0 2.17,-0.82 2.23,-1.91l0.05,0l0,4.47l-8.21,0l0,7.85l7.92,0c1.13,0 2.18,-0.82 2.24,-1.9l0.05,0l0,4.47l-16.64,-0.01l0,-0.04c1.12,-0.07 1.96,-1.25 1.96,-2.36l0,-20.56c0,-1.1 -0.84,-2.29 -1.96,-2.36l0,-0.05l8.39,0l0,0.05c-1.12,0.07 -1.96,1.26 -1.96,2.36l0,9.99z" fill="#e60012" fill-rule="nonzero" id="path5600"/></g>
   <g id="svg_2" transform="matrix(4.25245, 0, 0, -4.25245, 499.928, 863.105)"><path d="m-87.73,162.73c0,-2.64 2.2,-4.92 4.92,-4.92c2.71,0 4.92,2.31 4.92,4.95l0,16.11c0,1.11 -0.85,2.3 -1.97,2.36l0,0.05l8.4,0l0,-0.05c-1.12,-0.06 -1.97,-1.25 -1.97,-2.36l0,-15.65c0,-5.04 -4.18,-7.98 -9.36,-7.98c-5.19,0 -9.42,2.94 -9.42,7.98l0.01,15.65c0,1.11 -0.84,2.3 -1.96,2.36l0,0.05l8.39,0l0,-0.05c-1.12,-0.07 -1.96,-1.26 -1.96,-2.36l0,-16.14z" fill="#e60012" fill-rule="nonzero" id="path5604"/></g>
   <g id="svg_3" transform="matrix(4.25245, 0, 0, -4.25245, 791.719, 801.679)"><path d="m-87.73,162.73c-1.41,2.27 -4.62,1.99 -4.62,1.99c-5.25,0 -5,-3.99 -5,-3.99c0,0 -0.36,-2.01 2.28,-3.37l5.25,-2.78c5.07,-2.72 4.47,-6.57 4.47,-6.57c0,0 0.22,-7.2 -10.38,-7.2c0,0 -3.08,-0.09 -4.82,0.56l-1.49,4.66l0.05,0c1.61,-2.32 6.31,-2.66 6.31,-2.66c5.95,0.27 5.99,4.3 5.99,4.3c0,0 0.27,1.74 -2.06,3l-5.23,2.78c-5.45,2.91 -4.83,6.82 -4.83,6.82c0,0 -0.13,7.08 9.25,7.08c0,0 4.21,-0.1 4.88,-0.76l0,-3.86l-0.05,0z" fill="#e60012" fill-rule="nonzero" id="path5608"/></g>
   <g id="svg_4" transform="matrix(4.25245, 0, 0, -4.25245, 617.714, 746.69)"><path d="m-87.73,162.73c0.93,-0.91 2.23,-1.47 3.65,-1.47c2.85,0 5.16,2.25 5.16,5.02c0,2.77 -2.31,5.02 -5.17,5.02c0,0 -3.97,0.37 -5.76,-4.58l0,3.71c1.34,1.7 3.4,2.93 5.76,2.93c4.03,0 7.29,-3.17 7.29,-7.08c0,-3.9 -3.26,-7.08 -7.29,-7.08c-2.01,0 -3.83,0.79 -5.14,2.08l-2.51,2.73c-0.69,0.67 -1.63,1.08 -2.67,1.08c-2.08,0 -3.78,-1.64 -3.78,-3.67c0,-2.03 1.7,-3.68 3.78,-3.68c0,0 2.79,-0.36 4.56,3l0,-2.97c-1.08,-1.28 -2.73,-2.09 -4.56,-2.09c-3.25,0 -5.9,2.57 -5.9,5.74c0,3.17 2.65,5.73 5.9,5.73c1.63,0 3.1,-0.63 4.17,-1.68l2.51,-2.74z" fill="#e60012" fill-rule="nonzero" id="path5612"/></g>
   <g id="svg_5" transform="matrix(4.25245, 0, 0, -4.25245, 623.424, 794.231)"><path d="m-87.73,162.73c0,1.11 -0.84,2.25 -1.96,2.3l0,0.05l8.38,0l0,-0.05c-1.12,-0.06 -1.96,-1.2 -1.96,-2.3l0,-20.6c0,-1.11 0.84,-2.3 1.96,-2.37l0,-0.04l-8.38,0l0,0.04c1.12,0.07 1.96,1.26 1.96,2.37l0,20.6z" fill="#e60012" fill-rule="nonzero" id="path5616"/></g>
   <g id="svg_6" transform="matrix(4.25245, 0, 0, -4.25245, 601.049, 794.459)"><path d="m-87.73,162.73c0,1.11 0.84,2.29 1.96,2.35l0,0.05l-8.39,0l0,-0.05c1.12,-0.06 1.96,-1.24 1.96,-2.35l0.01,-25.76c0,0 -0.1,-4.54 -3.76,-7.16l0.01,-0.05c0.72,0.12 8.22,1.5 8.22,8.74l-0.01,24.23z" fill="#e60012" fill-rule="nonzero" id="path5620"/></g>
   <g id="svg_7" transform="matrix(4.25245, 0, 0, -4.25245, 650.575, 803.645)"><path d="m-87.73,162.73l0.05,0c1.14,1.98 2.89,2 2.89,2l4.54,0l0,-20.4c0,-1.1 -0.84,-2.29 -1.96,-2.35l0,-0.05l8.4,0l0,0.05c-1.13,0.06 -1.97,1.25 -1.97,2.35l0,20.4l3.8,0.01c1.15,0 2.07,-0.9 2.1,-2.01l0.04,0l1.4,4.57l-17.89,0l-1.4,-4.57z" fill="#e60012" fill-rule="nonzero" id="path5624"/></g>
   <g id="svg_8" transform="matrix(4.25245, 0, 0, -4.25245, 828.405, 863.105)"><path d="m-87.73,162.73c0,-2.64 2.2,-4.92 4.92,-4.92c2.71,0 4.92,2.31 4.92,4.95l0,16.11c0,1.11 -0.85,2.3 -1.97,2.36l0,0.05l8.4,0l0,-0.05c-1.12,-0.06 -1.97,-1.25 -1.97,-2.36l0,-15.65c0,-5.04 -4.18,-7.98 -9.37,-7.98c-5.18,0 -9.4,2.94 -9.4,7.98l0.01,15.65c0,1.11 -0.85,2.3 -1.97,2.36l0,0.05l8.39,0l0,-0.05c-1.12,-0.07 -1.97,-1.26 -1.97,-2.36l0.01,-16.14z" fill="#e60012" fill-rule="nonzero" id="path5628"/></g>
  </g>
 </g>
</svg>